<svg xmlns="http://www.w3.org/2000/svg" width="18.341" height="17.829" viewBox="0 0 18.341 17.829">
  <g id="ic_default_icon" transform="translate(-72.529 -81.68)">
    <path id="Path_183" data-name="Path 183" d="M156.217,83.208H155.2V82.19a.51.51,0,1,0-1.02,0v1.018h-4.585V82.19a.51.51,0,1,0-1.02,0v1.018h-4.585V82.19a.51.51,0,1,0-1.02,0v1.018h-1.02a2.038,2.038,0,0,0-2.038,2.038v7.131a2.038,2.038,0,0,0,2.038,2.038h14.264a2.038,2.038,0,0,0,2.038-2.038V85.245a2.034,2.034,0,0,0-2.036-2.037Zm1.018,9.168a1.02,1.02,0,0,1-1.018,1.018H141.954a1.019,1.019,0,0,1-1.018-1.018V85.245a1.019,1.019,0,0,1,1.018-1.018h14.262a1.019,1.019,0,0,1,1.018,1.018v7.131Z" transform="translate(-67.383 0)" fill="#fff"/>
    <path id="Path_184" data-name="Path 184" d="M232.378,377.4h-1.02v-4.075H230.34V377.4h-6.113v-4.075h-1.018V377.4H222.19a.51.51,0,1,0,0,1.02h10.188a.51.51,0,0,0,0-1.02Z" transform="translate(-145.58 -278.911)" fill="#fff"/>
  </g>
</svg>
