<svg xmlns="http://www.w3.org/2000/svg" width="19.632" height="19.581" viewBox="0 0 19.632 19.581">
  <g id="noun-analytics-1122982" transform="translate(-76.018 -73.106)">
    <path id="Path_82601" data-name="Path 82601" d="M159.608,119.84H145.129a2.317,2.317,0,0,0-2.327,2.327V130.7a2.317,2.317,0,0,0,2.327,2.327h6.1l-4.214,3.284a.278.278,0,0,0-.052.362.235.235,0,0,0,.207.1.366.366,0,0,0,.155-.052l4.654-3.62.052-.052h.646c0,.026.026.026.026.052l4.654,3.62a.368.368,0,0,0,.155.052.235.235,0,0,0,.207-.1.253.253,0,0,0-.052-.362l-4.162-3.283h6.1a2.317,2.317,0,0,0,2.327-2.327v-8.532a2.334,2.334,0,0,0-2.327-2.327Zm1.81,10.859a1.8,1.8,0,0,1-1.81,1.81H145.129a1.8,1.8,0,0,1-1.81-1.81v-8.532a1.8,1.8,0,0,1,1.81-1.81h14.479a1.8,1.8,0,0,1,1.81,1.81Z" transform="translate(-66.534 -44.338)" fill="#fff" stroke="#fff" stroke-width="0.5"/>
    <path id="Path_82602" data-name="Path 82602" d="M168.257,73.873h16.289a.259.259,0,0,0,0-.517H168.257a.259.259,0,0,0,0,.517Z" transform="translate(-90.567)" fill="#fff" stroke="#fff" stroke-width="0.5"/>
    <path id="Path_82603" data-name="Path 82603" d="M231.775,183.68h-3.982a.259.259,0,1,0,0,.517h3.335l-2.921,2.921-1.086-1.06a.25.25,0,0,0-.362,0l-3.309,3.309-1.215-1.215a.25.25,0,0,0-.362,0L219.6,190.4a.25.25,0,0,0,0,.362.25.25,0,0,0,.362,0l2.068-2.068,1.215,1.215a.25.25,0,0,0,.362,0l3.335-3.335,1.086,1.086a.25.25,0,0,0,.362,0l3.129-3.129v3.335a.259.259,0,0,0,.517,0v-3.93a.259.259,0,0,0-.258-.259Z" transform="translate(-139.709 -105.231)" fill="#fff" stroke="#fff" stroke-width="0.5"/>
  </g>
</svg>
