<svg xmlns="http://www.w3.org/2000/svg" width="30.151" height="40.152" viewBox="0 0 30.151 40.152">
  <g id="ic_pdf_icon" transform="translate(4166.727 -10423.819)">
    <path id="Path_82703" data-name="Path 82703" d="M231.357,115.777a1.136,1.136,0,0,1-.87-.41l-.068-.1a2.623,2.623,0,0,1,.7-3.049,12.012,12.012,0,0,1,4.517-2.639,36.794,36.794,0,0,0,1.817-3.9c-1.208-1.986-1.713-4.074-1.215-5.442a1.875,1.875,0,0,1,1.539-1.287l.062,0a1.52,1.52,0,0,1,1.548,1.293c.284,1.17-.151,3.16-.956,5.331a12.047,12.047,0,0,0,1.113,1.444,14.925,14.925,0,0,0,1.2,1.291,11.324,11.324,0,0,1,5.025.171,1.863,1.863,0,0,1,1.428,1.7v.009a1.435,1.435,0,0,1-.953,1.448c-1.23.449-3.548-.36-5.81-2.407a24.585,24.585,0,0,0-4.181,1.052c-1.408,2.555-3,4.7-4.141,5.292a1.671,1.671,0,0,1-.76.208Zm-.163-.947c.071.062.2.115.517-.046.863-.446,2.076-2.022,3.245-4a9.7,9.7,0,0,0-3.19,2.033,1.818,1.818,0,0,0-.572,2.015Zm10.431-5.761c1.853,1.479,3.577,2,4.319,1.733a.549.549,0,0,0,.373-.607c0-.149-.026-.581-.857-.895a9.223,9.223,0,0,0-3.835-.231Zm-3.583-2.509c-.358.87-.765,1.752-1.2,2.609a25.781,25.781,0,0,1,2.826-.692q-.4-.418-.793-.889a12.947,12.947,0,0,1-.833-1.028Zm-.172-6.732a.99.99,0,0,0-.8.709,5.69,5.69,0,0,0,.787,4.049,8.678,8.678,0,0,0,.673-4.14c-.127-.522-.388-.612-.658-.618Z" transform="translate(-4390.347 10332.1)" fill="#ad1123"/>
    <path id="Path_82704" data-name="Path 82704" d="M169.666,7.652,162.541.527A1.792,1.792,0,0,0,161.266,0H142.246a1.806,1.806,0,0,0-1.8,1.8V37.948a1.806,1.806,0,0,0,1.8,1.8H168.39a1.806,1.806,0,0,0,1.8-1.8V8.927a1.791,1.791,0,0,0-.528-1.275Zm-.98.27h-5.615a.8.8,0,0,1-.8-.8V1.506ZM142.247.882h19.019a.933.933,0,0,1,.122.012V7.122A1.684,1.684,0,0,0,163.071,8.8H169.3a.868.868,0,0,1,.012.122V26.775H141.327V1.8a.921.921,0,0,1,.92-.92Zm26.144,37.985H142.247a.921.921,0,0,1-.92-.92V27.658h27.984V37.947A.92.92,0,0,1,168.392,38.867Z" transform="translate(-4306.97 10424.021)" fill="#ad1123" stroke="#ad1123" stroke-width="0.4"/>
    <path id="Path_82705" data-name="Path 82705" d="M244.846,420.44h-1.932a.442.442,0,0,0-.442.442V426.9a.442.442,0,0,0,.883,0V424.9h1.49a1.7,1.7,0,0,0,1.7-1.7v-1.067a1.7,1.7,0,0,0-1.7-1.7Zm.812,2.762a.813.813,0,0,1-.812.812h-1.49v-2.69h1.49a.813.813,0,0,1,.812.812Z" transform="translate(-4401.756 10033.425)"/>
    <path id="Path_82706" data-name="Path 82706" d="M322.81,427.349h-1.8a.442.442,0,0,1-.442-.442v-6.021a.442.442,0,0,1,.442-.442h1.8a1.826,1.826,0,0,1,1.824,1.824v3.256a1.827,1.827,0,0,1-1.825,1.825Zm-1.361-.883h1.361a.942.942,0,0,0,.941-.941v-3.256a.942.942,0,0,0-.941-.941h-1.361Z" transform="translate(-4474.307 10033.421)"/>
    <path id="Path_82707" data-name="Path 82707" d="M403.843,420.439h-3.185a.441.441,0,0,0-.442.442V426.9a.442.442,0,0,0,.883,0v-2.569h1.644a.442.442,0,0,0,0-.883H401.1v-2.127h2.744a.442.442,0,0,0,0-.884Z" transform="translate(-4548.303 10033.426)"/>
  </g>
</svg>
