<?xml version="1.0" encoding="UTF-8"?><svg id="Layer_1" xmlns="http://www.w3.org/2000/svg" viewBox="0 0 64 80"><defs><style>.cls-1{fill:#00ced0;}</style></defs><path class="cls-1" d="m58.5,8.1H9.5c-.55,0-1,.45-1,1v41.8c0,.55.45,1,1,1h49c.55,0,1-.45,1-1V9.1c0-.55-.45-1-1-1Zm-1,2v31.17l-11.26-12.44c-.19-.21-.46-.33-.74-.33h0c-.28,0-.55.12-.74.33l-7.24,8.14-11.26-13.13c-.19-.22-.47-.35-.76-.35h0c-.29,0-.57.13-.76.35l-14.24,16.49V10.1h47ZM10.5,49.9v-6.5l15-17.37,11.24,13.12c.19.22.46.35.75.35.29.01.57-.11.76-.33l7.26-8.17,11.99,13.26v5.65H10.5Zm45,5c0,.55-.45,1-1,1H5.5c-.55,0-1-.45-1-1V13.1c0-.55.45-1,1-1s1,.45,1,1v40.8h48c.55,0,1,.45,1,1Zm-10-31.4c2.21,0,4-1.79,4-4s-1.79-4-4-4-4,1.79-4,4,1.79,4,4,4Zm0-6c1.1,0,2,.9,2,2s-.9,2-2,2-2-.9-2-2,.9-2,2-2t0,0Z"/></svg>