<?xml version="1.0" encoding="UTF-8"?><svg id="Layer_1" xmlns="http://www.w3.org/2000/svg" viewBox="0 0 333.33 416.66"><defs><style>.cls-1{fill:#ee8157;}</style></defs><path class="cls-1" d="m166.67,8.33c43.72,0,83.31,17.73,111.96,46.38,28.65,28.65,46.38,68.24,46.38,111.96s-17.73,83.31-46.38,111.96c-28.65,28.65-68.24,46.38-111.96,46.38s-83.31-17.73-111.96-46.38c-28.65-28.65-46.38-68.24-46.38-111.96S26.06,83.36,54.71,54.71C83.36,26.06,122.95,8.33,166.67,8.33h0Zm64.65,288.17c12.89-36.64,5.39-67.82-22.47-93.53-13.99,8.19-28.06,12.29-42.18,12.29s-28.19-4.1-42.18-12.29c-27.86,25.71-35.36,56.89-22.47,93.53,19.46,9.71,41.42,15.17,64.65,15.17s45.19-5.46,64.65-15.17Zm-146.03-9.79c-8.77-37.7,2.57-70.02,34.02-96.94,2.18-1.96,5.49-2.3,8.07-.63,13.17,8.52,26.27,12.78,39.28,12.78s26.06-4.24,39.2-12.72c2.42-1.62,5.71-1.51,8.02.47,31.55,26.94,42.93,59.3,34.15,97.04,7.6-5.16,14.69-11.03,21.16-17.5,26.23-26.24,42.46-62.49,42.46-102.54s-16.23-76.3-42.46-102.54c-26.24-26.23-62.49-42.46-102.54-42.46s-76.3,16.23-102.54,42.46c-26.23,26.24-42.46,62.49-42.46,102.54s16.23,76.3,42.46,102.54c6.48,6.47,13.56,12.34,21.16,17.5h.02Zm81.37-208.55c13.69,0,26.08,5.55,35.05,14.52s14.52,21.37,14.52,35.05-5.55,26.08-14.52,35.05-21.37,14.52-35.05,14.52-26.08-5.55-35.05-14.52-14.52-21.37-14.52-35.05,5.55-26.08,14.52-35.05,21.37-14.52,35.05-14.52Zm25.63,23.95c-6.55-6.55-15.61-10.61-25.63-10.61s-19.07,4.06-25.63,10.61c-6.55,6.55-10.61,15.61-10.61,25.63s4.06,19.07,10.61,25.63c6.55,6.55,15.61,10.61,25.63,10.61s19.07-4.06,25.63-10.61c6.55-6.55,10.61-15.62,10.61-25.63s-4.06-19.07-10.61-25.63Z"/></svg>