<svg xmlns="http://www.w3.org/2000/svg" width="96" height="96" viewBox="0 0 96 96">
  <g id="Group_8730" data-name="Group 8730" transform="translate(-517 -196)">
    <circle id="Ellipse_1" data-name="Ellipse 1" cx="48" cy="48" r="48" transform="translate(517 196)" fill="#c6c6c6"/>
    <path id="Path_17520" data-name="Path 17520" d="M133.807,49.721a21.308,21.308,0,0,0-42.466,0,2.613,2.613,0,0,0,2.606,2.827H131.2a2.613,2.613,0,0,0,2.6-2.827Zm-2.224.567a.466.466,0,0,1-.379.167H93.945a.518.518,0,0,1-.515-.559,19.213,19.213,0,0,1,38.29,0,.466.466,0,0,1-.137.392ZM112.575,27.525a9.847,9.847,0,1,0-6.952-2.884A9.835,9.835,0,0,0,112.575,27.525Zm0-17.577a7.751,7.751,0,1,1-5.471,2.27,7.743,7.743,0,0,1,5.471-2.27Z" transform="translate(452.377 214.083)" fill="#fff" stroke="#fff" stroke-width="1"/>
  </g>
</svg>
