<svg id="noun-minibus-3584478" xmlns="http://www.w3.org/2000/svg" width="54.085" height="28.899" viewBox="0 0 54.085 28.899">
  <path id="Path_34" data-name="Path 34" d="M153.581,147.62H117.32a4.031,4.031,0,0,0-2.664,1.049,21.28,21.28,0,0,0-2.769,3.024.819.819,0,0,0-.312.426,25.205,25.205,0,0,0-2,3.237h-3.786a.819.819,0,0,0-.754.484l-1.368,3.073a.825.825,0,1,0,1.491.7l1.155-2.589h2.458a34.091,34.091,0,0,0-2.778,11.268A4.023,4.023,0,0,0,110,172.581h4.351a4.917,4.917,0,0,0,9.637,0h18.577a4.917,4.917,0,0,0,9.637,0h1.377a4.1,4.1,0,0,0,4.1-4.1V151.717a4.1,4.1,0,0,0-4.1-4.1Zm-42.842,8.948a.274.274,0,0,0,.057-.107,23.846,23.846,0,0,1,1.991-3.277h11.072V158.4h-3.966a1.64,1.64,0,0,0-1.59,1.246c-.271,1.082-1.811,4.507-10.145,4.753h0a30.644,30.644,0,0,1,2.582-7.826Zm14.75-3.392h6.5v5.212H125.5Zm8.137,0h6.515v5.212h-6.506Zm8.145,0h6.482v5.212H141.78Zm8.145,0h6.121v5.212h-6.146ZM115.7,149.9a2.458,2.458,0,0,1,1.639-.631H153.58a2.458,2.458,0,0,1,2.458,2.278H114.083a19.275,19.275,0,0,1,1.623-1.656Zm3.467,25.149h0a3.519,3.519,0,1,0,.009-.008Zm28.214,0h0a3.3,3.3,0,1,0,.008-.008Zm6.2-4.1H152.2a4.917,4.917,0,0,0-9.637,0H123.99a4.917,4.917,0,0,0-9.637,0H110a2.382,2.382,0,0,1-2.368-2.532c.057-.819.147-1.639.254-2.4,9.514-.189,11.563-4.245,12.005-6.015h36.146v8.5a2.458,2.458,0,0,1-2.458,2.475Z" transform="translate(-103.592 -147.62)" fill="#373a47"/>
  <path id="Path_35" data-name="Path 35" d="M495.15,360.34h1.639v1.639H495.15Z" transform="translate(-452.177 -336.994)" fill="#373a47"/>
  <path id="Path_36" data-name="Path 36" d="M238.07,360.34h1.639v1.639H238.07Z" transform="translate(-223.311 -336.994)" fill="#373a47"/>
</svg>
