<svg xmlns="http://www.w3.org/2000/svg" width="36.415" height="32.36" viewBox="0 0 36.415 32.36">
  <g id="noun-painting-798498" transform="translate(0.25 32.11) rotate(-90)">
    <path id="Path_39" data-name="Path 39" d="M.828,35.117h30.2L28.417.8H3.444Zm30.633.8H.4a.4.4,0,0,1-.4-.429L2.676.388A.4.4,0,0,1,3.075,0h25.71a.4.4,0,0,1,.4.369l2.674,35.1a.4.4,0,0,1-.4.451Z" fill="#373a47" stroke="#373a47" stroke-width="0.5" fill-rule="evenodd"/>
    <path id="Path_42" data-name="Path 42" d="M19.38,24.9l.246,6.63h-.857l-.217-6.63-5.789,0,.015,6.627h-.854L11.954,18H0l.048-.7H5.6l.212-5.714-5.382,0,.045-.655H5.84L6.245,0h.719L6.8,4.979h5.181L11.994,0h.716l.023,10.924H24.225l.045.655H18.888l.212,5.714h5.557l.048.7H12.749l.013,6.146H25.117l.051.758H19.38ZM6.4,17.293h5.557l.013-5.714H6.586Z" transform="translate(3.574 1.945)" fill="#373a47" stroke="#373a47" stroke-width="0.5" fill-rule="evenodd"/>
  </g>
</svg>
