<svg xmlns="http://www.w3.org/2000/svg" xmlns:xlink="http://www.w3.org/1999/xlink" width="112" height="112" viewBox="0 0 112 112">
  <defs>
    <clipPath id="clip-path">
      <rect id="Rectangle_9" data-name="Rectangle 9" width="112" height="112" fill="#fff" stroke="#707070" stroke-width="0.5"/>
    </clipPath>
    <clipPath id="clip-iPhone_14_Pro_2">
      <rect width="112" height="112"/>
    </clipPath>
  </defs>
  <g id="iPhone_14_Pro_2" data-name="iPhone 14 Pro – 2" clip-path="url(#clip-iPhone_14_Pro_2)">
    <rect width="112" height="112" fill="#fff"/>
    <g id="Mask_Group_6" data-name="Mask Group 6" clip-path="url(#clip-path)">
      <g id="Icons_World" data-name="Icons/World" transform="translate(7.475 7.475)">
        <g id="world">
          <path id="Shape" d="M3.7,77.35,2.263,74.718a15.237,15.237,0,0,0,5.291-4.813c2.32-3.909,4.2-9.848.026-16a49.544,49.544,0,0,0-3.511-4.366C1.2,46.229-1.5,43.105-1.5,39.825c0-1.847,1.025-3.495,3.132-5.036a40.861,40.861,0,0,1,5.983-3.32c3.45-1.686,7.018-3.429,8.849-5.792,1.028-1.329,2.084-3.953,1.269-8.906A25.932,25.932,0,0,0,15,8.649c-1.657-2.773-4.017-4.416-6.515-6.155-.6-.415-1.214-.845-1.814-1.287L8.452-1.208C9.021-.789,9.594-.39,10.2.032c2.649,1.844,5.388,3.75,7.377,7.078a28.794,28.794,0,0,1,3.115,9.175c.784,4.764.142,8.647-1.857,11.23-2.259,2.915-6.145,4.814-9.9,6.65C5.278,35.951,1.5,37.8,1.5,39.825c0,2.161,2.459,5,4.837,7.747a51.668,51.668,0,0,1,3.727,4.648,16.3,16.3,0,0,1,2.928,10.768,19.954,19.954,0,0,1-2.882,8.488l-.044.069A18.248,18.248,0,0,1,3.7,77.35Z" transform="translate(13.234 8.698)" fill="#fbc658" stroke="#f8c658" stroke-width="0.5"/>
          <path id="Shape-2" data-name="Shape" d="M21.591,29.052a8.329,8.329,0,0,1-2.076-.251,8.9,8.9,0,0,1-5.027-3.168,19.212,19.212,0,0,1-2.426-4.676A27.59,27.59,0,0,0,9.634,16.04C8.682,14.6,6.7,13.206,4.774,11.862,1.7,9.708-1.486,7.48-1.5,4.282A14.974,14.974,0,0,1-.847-.438L2.022.438A11.98,11.98,0,0,0,1.5,4.228v.035C1.5,5.91,4.04,7.686,6.494,9.4c2.152,1.506,4.378,3.064,5.645,4.987a30.425,30.425,0,0,1,2.7,5.428c1.295,3.156,2.15,5.242,5.42,6.075,3.362.86,8.589-1.918,14.641-5.135,2.263-1.2,4.6-2.447,7.089-3.637l1.3,2.706c-2.428,1.163-4.74,2.392-6.976,3.58a87.4,87.4,0,0,1-8.956,4.362A16.285,16.285,0,0,1,21.591,29.052Z" transform="translate(44.111 0.149)" fill="#fbc658" stroke="#f8c658" stroke-width="0.5"/>
          <path id="Shape-3" data-name="Shape" d="M15.589-1.5A18.111,18.111,0,0,1,27.447,2.74a14.907,14.907,0,0,1,3.667,4.677,13.345,13.345,0,0,1,1.408,5.8,24.932,24.932,0,0,1-3.138,11.463,43.24,43.24,0,0,1-7.562,10.339c-4.825,4.89-9.887,7.695-13.89,7.695a7.035,7.035,0,0,1-4.343-1.389A8.92,8.92,0,0,1-.046,36.478,18.562,18.562,0,0,1-.259,30.64,62.822,62.822,0,0,0-1.326,13.513a9.749,9.749,0,0,1,.248-4.674A11.562,11.562,0,0,1,1.134,4.808a17,17,0,0,1,6.3-4.6A20.521,20.521,0,0,1,15.589-1.5ZM7.931,39.711A11.554,11.554,0,0,0,13.417,37.9a30.721,30.721,0,0,0,6.269-4.992,40.778,40.778,0,0,0,7.033-9.61,21.98,21.98,0,0,0,2.8-10.045,11.04,11.04,0,0,0-4.033-8.241,15.113,15.113,0,0,0-9.9-3.513c-4.75,0-9.517,2.05-12.144,5.222a7.522,7.522,0,0,0-1.823,6.233A66.335,66.335,0,0,1,2.736,30.813c-.254,4.379-.34,5.854,2.659,8.114A4.051,4.051,0,0,0,7.931,39.711Z" transform="translate(48.442 39.276)" fill="#fbc658" stroke="#f8c658" stroke-width="0.5"/>
          <path id="Oval" d="M49-1.5A50.513,50.513,0,0,1,68.657,95.531,50.513,50.513,0,0,1,29.343,2.469,50.185,50.185,0,0,1,49-1.5Zm0,98A47.513,47.513,0,0,0,67.489,5.232,47.513,47.513,0,0,0,30.511,92.768,47.2,47.2,0,0,0,49,96.5Z" transform="translate(-0.475 -0.475)" fill="#fbc658" stroke="#f8c658" stroke-linecap="square" stroke-width="0.5"/>
        </g>
      </g>
    </g>
  </g>
</svg>
