<svg id="noun-billboard-4537365" xmlns="http://www.w3.org/2000/svg" width="42.571" height="43.87" viewBox="0 0 42.571 43.87">
  <path id="Path_43" data-name="Path 43" d="M142,123.326h.041l1.371-.1a.512.512,0,0,0-.075-1.021l-1.371.1a.513.513,0,0,0-.473.548A.5.5,0,0,0,142,123.326Z" transform="translate(-139.089 -114.562)"/>
  <path id="Path_44" data-name="Path 44" d="M240.462,115.312h.041l2.515-.185a.512.512,0,1,0-.075-1.021l-2.515.185a.511.511,0,0,0,.034,1.021Z" transform="translate(-228.633 -107.199)"/>
  <path id="Path_45" data-name="Path 45" d="M407.322,103.122h.041l2.515-.185a.512.512,0,0,0-.075-1.021l-2.515.185a.513.513,0,0,0-.473.548A.5.5,0,0,0,407.322,103.122Z" transform="translate(-380.384 -96.113)"/>
  <path id="Path_46" data-name="Path 46" d="M351.7,107.212h.041l2.515-.185a.512.512,0,1,0-.075-1.021l-2.515.185a.513.513,0,0,0-.473.548A.5.5,0,0,0,351.7,107.212Z" transform="translate(-329.8 -99.833)"/>
  <path id="Path_47" data-name="Path 47" d="M296.082,111.3h.041l2.515-.185a.512.512,0,1,0-.075-1.021l-2.515.185a.514.514,0,0,0-.473.548A.5.5,0,0,0,296.082,111.3Z" transform="translate(-279.217 -103.552)"/>
  <path id="Path_48" data-name="Path 48" d="M184.912,119.392h.041l2.515-.185a.512.512,0,1,0-.075-1.021l-2.515.185a.513.513,0,0,0-.473.548A.5.5,0,0,0,184.912,119.392Z" transform="translate(-178.113 -110.91)"/>
  <path id="Path_49" data-name="Path 49" d="M462.872,99.112h.041l2.515-.185a.512.512,0,1,0-.075-1.021l-2.515.185a.511.511,0,0,0,.034,1.021Z" transform="translate(-430.904 -92.466)"/>
  <path id="Path_50" data-name="Path 50" d="M518.492,95.847h.041l1.364-.1a.514.514,0,0,0,.473-.548.5.5,0,0,0-.548-.473l-1.364.1a.513.513,0,0,0-.473.548A.5.5,0,0,0,518.492,95.847Z" transform="translate(-481.487 -89.57)"/>
  <path id="Path_51" data-name="Path 51" d="M142,156.466h.041l1.371-.1a.512.512,0,1,0-.075-1.021l-1.371.1a.513.513,0,0,0-.473.548A.5.5,0,0,0,142,156.466Z" transform="translate(-139.089 -144.701)"/>
  <path id="Path_52" data-name="Path 52" d="M462.872,132.173h.041l2.515-.185a.512.512,0,1,0-.075-1.021l-2.515.185a.511.511,0,0,0,.034,1.021Z" transform="translate(-430.904 -122.532)"/>
  <path id="Path_53" data-name="Path 53" d="M351.7,140.353h.041l2.515-.185a.512.512,0,1,0-.075-1.021l-2.515.185a.513.513,0,0,0-.473.548A.5.5,0,0,0,351.7,140.353Z" transform="translate(-329.8 -129.971)"/>
  <path id="Path_54" data-name="Path 54" d="M240.462,148.452h.041l2.515-.185a.512.512,0,1,0-.075-1.021l-2.515.185a.511.511,0,0,0,.034,1.021Z" transform="translate(-228.633 -137.338)"/>
  <path id="Path_55" data-name="Path 55" d="M407.322,136.263h.041l2.515-.185a.512.512,0,0,0-.075-1.021l-2.515.185a.513.513,0,0,0-.473.548A.5.5,0,0,0,407.322,136.263Z" transform="translate(-380.384 -126.252)"/>
  <path id="Path_56" data-name="Path 56" d="M296.082,144.363h.041l2.515-.185a.512.512,0,1,0-.075-1.021l-2.515.185a.514.514,0,0,0-.473.548A.5.5,0,0,0,296.082,144.363Z" transform="translate(-279.217 -133.618)"/>
  <path id="Path_57" data-name="Path 57" d="M184.912,152.542h.041l2.515-.185a.512.512,0,1,0-.075-1.021l-2.515.185a.513.513,0,0,0-.473.548A.5.5,0,0,0,184.912,152.542Z" transform="translate(-178.113 -141.058)"/>
  <path id="Path_58" data-name="Path 58" d="M518.492,129h.041l1.364-.1a.512.512,0,0,0-.075-1.021l-1.364.1a.513.513,0,0,0-.473.548A.5.5,0,0,0,518.492,129Z" transform="translate(-481.487 -119.719)"/>
  <path id="Path_59" data-name="Path 59" d="M142,189.616h.041l1.371-.1a.512.512,0,0,0-.075-1.021l-1.371.1a.513.513,0,0,0-.473.548A.5.5,0,0,0,142,189.616Z" transform="translate(-139.089 -174.85)"/>
  <path id="Path_60" data-name="Path 60" d="M407.322,169.422h.041l2.515-.185a.512.512,0,0,0-.075-1.021l-2.515.185a.513.513,0,0,0-.473.548A.5.5,0,0,0,407.322,169.422Z" transform="translate(-380.384 -156.409)"/>
  <path id="Path_61" data-name="Path 61" d="M351.7,173.432h.041l2.515-.185a.512.512,0,1,0-.075-1.021l-2.515.185a.513.513,0,0,0-.473.548A.5.5,0,0,0,351.7,173.432Z" transform="translate(-329.8 -160.056)"/>
  <path id="Path_62" data-name="Path 62" d="M184.912,185.612h.041l2.515-.185a.512.512,0,1,0-.075-1.021l-2.515.185a.513.513,0,0,0-.473.548A.5.5,0,0,0,184.912,185.612Z" transform="translate(-178.113 -171.133)"/>
  <path id="Path_63" data-name="Path 63" d="M296.082,177.512h.041l2.515-.185a.512.512,0,1,0-.075-1.021l-2.515.185a.513.513,0,0,0-.473.548A.5.5,0,0,0,296.082,177.512Z" transform="translate(-279.217 -163.767)"/>
  <path id="Path_64" data-name="Path 64" d="M240.462,181.6h.041l2.515-.185a.512.512,0,1,0-.075-1.021l-2.515.185a.511.511,0,0,0,.034,1.021Z" transform="translate(-228.633 -167.486)"/>
  <path id="Path_65" data-name="Path 65" d="M462.872,165.332h.041l2.515-.185a.512.512,0,1,0-.075-1.021l-2.515.185a.511.511,0,0,0,.034,1.021Z" transform="translate(-430.904 -152.69)"/>
  <path id="Path_66" data-name="Path 66" d="M518.492,162.137h.041l1.364-.1a.514.514,0,0,0,.473-.548.5.5,0,0,0-.548-.473l-1.364.1a.511.511,0,0,0,.034,1.021Z" transform="translate(-481.487 -149.858)"/>
  <path id="Path_67" data-name="Path 67" d="M142,222.686h.041l1.371-.1a.512.512,0,1,0-.075-1.021l-1.371.1a.513.513,0,0,0-.473.548A.5.5,0,0,0,142,222.686Z" transform="translate(-139.089 -204.925)"/>
  <path id="Path_68" data-name="Path 68" d="M184.912,218.762h.041l2.515-.185a.512.512,0,1,0-.075-1.021l-2.515.185a.513.513,0,0,0-.473.548A.5.5,0,0,0,184.912,218.762Z" transform="translate(-178.113 -201.281)"/>
  <path id="Path_69" data-name="Path 69" d="M407.322,202.553h.041l2.515-.185a.512.512,0,0,0-.075-1.021l-2.515.185a.511.511,0,0,0,.034,1.021Z" transform="translate(-380.384 -186.539)"/>
  <path id="Path_70" data-name="Path 70" d="M462.872,198.473h.041l2.515-.185a.512.512,0,1,0-.075-1.021l-2.515.185a.511.511,0,0,0,.034,1.021Z" transform="translate(-430.904 -182.829)"/>
  <path id="Path_71" data-name="Path 71" d="M296.082,210.653h.041l2.515-.185a.512.512,0,1,0-.075-1.021l-2.515.185a.514.514,0,0,0-.473.548A.5.5,0,0,0,296.082,210.653Z" transform="translate(-279.217 -193.906)"/>
  <path id="Path_72" data-name="Path 72" d="M240.462,214.672h.041l2.515-.185a.512.512,0,1,0-.075-1.021l-2.515.185a.511.511,0,0,0,.034,1.021Z" transform="translate(-228.633 -197.562)"/>
  <path id="Path_73" data-name="Path 73" d="M351.7,206.563h.041l2.515-.185a.512.512,0,1,0-.075-1.021l-2.515.185a.513.513,0,0,0-.473.548A.5.5,0,0,0,351.7,206.563Z" transform="translate(-329.8 -190.186)"/>
  <path id="Path_74" data-name="Path 74" d="M518.492,195.216h.041l1.364-.1a.512.512,0,1,0-.075-1.021l-1.364.1a.513.513,0,0,0-.473.548A.5.5,0,0,0,518.492,195.216Z" transform="translate(-481.487 -179.942)"/>
  <path id="Path_75" data-name="Path 75" d="M142,255.836h.041l1.371-.1a.512.512,0,0,0-.075-1.021l-1.371.1a.513.513,0,0,0-.473.548A.5.5,0,0,0,142,255.836Z" transform="translate(-139.089 -235.073)"/>
  <path id="Path_76" data-name="Path 76" d="M296.082,243.732h.041l2.515-.185a.512.512,0,1,0-.075-1.021l-2.515.185a.513.513,0,0,0-.473.548A.5.5,0,0,0,296.082,243.732Z" transform="translate(-279.217 -223.99)"/>
  <path id="Path_77" data-name="Path 77" d="M462.872,231.622h.041l2.515-.185a.512.512,0,1,0-.075-1.021l-2.515.185a.511.511,0,0,0,.034,1.021Z" transform="translate(-430.904 -212.977)"/>
  <path id="Path_78" data-name="Path 78" d="M240.462,247.822h.041l2.515-.185a.512.512,0,0,0-.075-1.021l-2.515.185a.511.511,0,0,0,.034,1.021Z" transform="translate(-228.633 -227.71)"/>
  <path id="Path_79" data-name="Path 79" d="M407.322,235.632h.041l2.515-.185a.512.512,0,0,0-.075-1.021l-2.515.185a.513.513,0,0,0-.473.548A.5.5,0,0,0,407.322,235.632Z" transform="translate(-380.384 -216.624)"/>
  <path id="Path_80" data-name="Path 80" d="M351.7,239.722h.041l2.515-.185a.512.512,0,1,0-.075-1.021l-2.515.185a.514.514,0,0,0-.473.548A.5.5,0,0,0,351.7,239.722Z" transform="translate(-329.8 -220.344)"/>
  <path id="Path_81" data-name="Path 81" d="M184.912,251.9h.041l2.515-.185a.512.512,0,1,0-.075-1.021l-2.515.185a.513.513,0,0,0-.473.548A.5.5,0,0,0,184.912,251.9Z" transform="translate(-178.113 -231.421)"/>
  <path id="Path_82" data-name="Path 82" d="M518.492,228.356h.041l1.364-.1a.512.512,0,1,0-.075-1.021l-1.364.1a.514.514,0,0,0-.473.548A.5.5,0,0,0,518.492,228.356Z" transform="translate(-481.487 -210.082)"/>
  <path id="Path_83" data-name="Path 83" d="M142,288.976h.041l1.371-.1a.512.512,0,1,0-.075-1.021l-1.371.1a.513.513,0,0,0-.473.548A.5.5,0,0,0,142,288.976Z" transform="translate(-139.089 -265.212)"/>
  <path id="Path_84" data-name="Path 84" d="M351.7,272.863h.041l2.515-.185a.512.512,0,0,0-.075-1.021l-2.515.185a.513.513,0,0,0-.473.548A.5.5,0,0,0,351.7,272.863Z" transform="translate(-329.8 -250.483)"/>
  <path id="Path_85" data-name="Path 85" d="M184.912,285.052h.041l2.515-.185a.512.512,0,0,0-.075-1.021l-2.515.185a.511.511,0,0,0,.034,1.021Z" transform="translate(-178.113 -261.569)"/>
  <path id="Path_86" data-name="Path 86" d="M407.322,268.773h.041l2.515-.185a.512.512,0,1,0-.075-1.021l-2.515.185a.513.513,0,0,0-.473.548A.5.5,0,0,0,407.322,268.773Z" transform="translate(-380.384 -246.763)"/>
  <path id="Path_87" data-name="Path 87" d="M462.872,264.683h.041l2.515-.185a.512.512,0,1,0-.075-1.021l-2.515.185a.511.511,0,0,0,.034,1.021Z" transform="translate(-430.904 -243.043)"/>
  <path id="Path_88" data-name="Path 88" d="M240.462,280.962h.041l2.515-.185a.512.512,0,1,0-.075-1.021l-2.515.185a.511.511,0,0,0,.034,1.021Z" transform="translate(-228.633 -257.849)"/>
  <path id="Path_89" data-name="Path 89" d="M296.082,276.872h.041l2.515-.185a.512.512,0,1,0-.075-1.021l-2.515.185a.513.513,0,0,0-.473.548A.5.5,0,0,0,296.082,276.872Z" transform="translate(-279.217 -254.13)"/>
  <path id="Path_90" data-name="Path 90" d="M518.492,261.506h.041l1.364-.1a.512.512,0,0,0-.075-1.021l-1.364.1a.513.513,0,0,0-.473.548A.5.5,0,0,0,518.492,261.506Z" transform="translate(-481.487 -240.23)"/>
  <path id="Path_91" data-name="Path 91" d="M157.2,62.362l-.98-.425V39.386a.514.514,0,0,0-1.028,0v1.062l-7.428.542V38.358a.514.514,0,1,0-1.028,0v2.707l-30.768,2.247v-.987a.514.514,0,1,0-1.028,0V65.213c0,.014.007.027.007.041a.535.535,0,0,0,.034.151.148.148,0,0,0,.034.055.362.362,0,0,0,.075.1c.007.007.014.021.021.027s.034.021.048.034a.471.471,0,0,0,.075.048.548.548,0,0,0,.1.034.1.1,0,0,0,.048.014l.418.062-.13.877a.512.512,0,0,0,.432.583.313.313,0,0,0,.075.007.515.515,0,0,0,.507-.439l.13-.877,1.7.254-.13.877a.512.512,0,0,0,.432.583.312.312,0,0,0,.075.007.515.515,0,0,0,.507-.439l.13-.877,1.7.254-.13.877a.512.512,0,0,0,.432.583.312.312,0,0,0,.075.007.515.515,0,0,0,.507-.439l.13-.877,1.7.254-.13.877a.512.512,0,0,0,.432.583.312.312,0,0,0,.075.007.515.515,0,0,0,.507-.439l.13-.877,1.7.254-.13.877a.512.512,0,0,0,.432.583.312.312,0,0,0,.075.007.515.515,0,0,0,.507-.439l.13-.877,1.7.254-.13.877a.512.512,0,0,0,.432.583.312.312,0,0,0,.075.007.515.515,0,0,0,.507-.439l.13-.877,1.487.219V74.06a1.185,1.185,0,0,0-.493.959V81.2a.514.514,0,1,0,1.028,0V75.019a.156.156,0,0,1,.089-.151,7.661,7.661,0,0,1,6.188,0,.162.162,0,0,1,.089.151V81.2a.514.514,0,1,0,1.028,0V75.019a1.184,1.184,0,0,0-.493-.959V69.27l.911.137-.13.877a.512.512,0,0,0,.432.583.313.313,0,0,0,.075.007.515.515,0,0,0,.507-.439l.13-.877,1.7.247-.13.877a.512.512,0,0,0,.432.583.312.312,0,0,0,.075.007.515.515,0,0,0,.507-.439l.13-.877,1.7.247-.13.87a.512.512,0,0,0,.432.583.313.313,0,0,0,.075.007.515.515,0,0,0,.507-.439l.13-.87,1.7.247-.13.877a.512.512,0,0,0,.432.583.312.312,0,0,0,.075.007.515.515,0,0,0,.507-.439l.139-.889.075.014,1.227.528a.553.553,0,0,0,.206.041.515.515,0,0,0,.205-.987l-.685-.295,1.041-1.357.945.411a.553.553,0,0,0,.206.041.515.515,0,0,0,.206-.987l-.706-.308.829-1.083.932.4a.553.553,0,0,0,.206.041.515.515,0,0,0,.206-.987l-.7-.3.829-1.083.925.4a.553.553,0,0,0,.206.041.515.515,0,0,0,.206-.987l-.692-.3.829-1.083.918.4a.553.553,0,0,0,.206.041.515.515,0,0,0,.473-.308.508.508,0,0,0-.266-.671Zm-2-20.879V61.8l-1.823.13-.1-.973a.517.517,0,0,0-1.028.116l.1.939-2.062.151-.11-.987a.514.514,0,0,0-1.021.116l.1.953L147.2,62.4l-.11-1a.514.514,0,1,0-1.021.116l.1.966-2.062.151L144,61.616a.514.514,0,0,0-1.021.116l.1.953-2.062.151-.11-1.028a.514.514,0,0,0-1.021.116l.11.994-2.062.151-.116-1.042a.511.511,0,0,0-.569-.452.517.517,0,0,0-.459.569l.11,1.007-2.062.151-.116-1.055a.514.514,0,1,0-1.021.116l.11,1.021-1.459.11h-.014l-.6.041-.116-1.069a.507.507,0,0,0-.569-.452.517.517,0,0,0-.459.569l.11,1.035-2.062.151-.116-1.083a.514.514,0,1,0-1.021.116l.116,1.048L125.556,64l-.116-1.1a.514.514,0,1,0-1.021.116l.116,1.062-2.062.151-.123-1.11a.514.514,0,1,0-1.021.116l.116,1.076-2.062.151-.123-1.124a.514.514,0,1,0-1.021.116l.116,1.089-2.391.171V44.347ZM120.149,65.391l11.711-.857v2.584ZM132.888,73.6V64.46l5.386-.39V73.6a8.714,8.714,0,0,0-5.386,0Zm6.414-9.607L152.87,63c.02,0,.034.007.048.007h.055a.221.221,0,0,0,.062-.021l1.569-.116-5.235,6.825-3.029-.445c-.014,0-.021-.007-.034-.014h-.034l-5.393-.795-1.569-.233V63.993Z" transform="translate(-114.94 -37.844)"/>
</svg>
