<svg xmlns="http://www.w3.org/2000/svg" xmlns:xlink="http://www.w3.org/1999/xlink" width="1920" height="1015" viewBox="0 0 1920 1015">
  <defs>
    <clipPath id="clip-path">
      <rect id="Rectangle_4" data-name="Rectangle 4" width="1920" height="1015" transform="translate(1920 1015) rotate(180)" fill="none"/>
    </clipPath>
  </defs>
  <g id="BG_Lines" data-name="BG Lines" transform="translate(0)" opacity="0.59">
    <g id="Group_21" data-name="Group 21" clip-path="url(#clip-path)">
      <path id="Path_9" data-name="Path 9" d="M611.2,1156.123c-47.677,0-91.273-18.685-119.609-51.261-29.3-33.688-36.958-75.651-21-115.127l.865-2.115c15.794-38.078-8.221-71.028-33.646-105.912-11.407-15.651-23.2-31.834-30.984-48.448-20.744-44.29-29.416-100.444-23.8-154.064,7.625-72.743,45.273-141.727,103.283-189.266,85.428-70,221.4-99.653,363.726-79.318,13.039,1.861,26.261,4.118,39.048,6.3,38.645,6.594,78.617,13.414,118.79,10.283,59.721-4.647,114.917-30.567,168.293-55.633,16.31-7.659,33.173-15.578,49.887-22.756,107.628-46.216,218.6-62.583,312.463-46.086,123.829,21.764,214.43,103.068,225.453,202.315,2.349,21.136-6.811,48.771-16.508,78.027-11.554,34.857-23.5,70.9-14.434,95.024,4.992,13.283,19.2,34.494,37.188,61.348,43.065,64.286,102.045,152.329,99.9,226.035-2.894,99.661-29.436,134.565-66.172,182.871l-5.523,7.276-2.217-1.151,5.526-7.277c36.514-48.014,62.9-82.7,65.772-181.769,2.122-73.12-56.657-160.864-99.577-224.935-18.062-26.963-32.328-48.26-37.4-61.753-9.292-24.727,2.757-61.082,14.412-96.239,9.63-29.061,18.731-56.511,16.423-77.256-10.916-98.3-100.69-178.831-223.389-200.4-93.281-16.4-203.624-.1-310.717,45.889-16.669,7.16-33.512,15.068-49.8,22.717-53.615,25.179-109.057,51.215-169.338,55.9-40.569,3.154-80.731-3.694-119.565-10.32-12.767-2.176-25.966-4.428-38.963-6.285-141.5-20.217-276.613,9.212-361.442,78.725C430.568,538.652,393.2,607.143,385.627,679.382c-5.588,53.3,3.023,109.1,23.63,153.1,7.7,16.438,19.434,32.54,30.782,48.112,24.618,33.774,50.074,68.7,33.884,107.732l-.861,2.1c-15.683,38.809-8.157,80.061,20.647,113.175,27.839,32.006,70.662,50.362,117.487,50.362Z" transform="translate(389.804 305.183)" fill="#f4ebe1"/>
      <path id="Path_10" data-name="Path 10" d="M651.9,1035.888c-33.856,0-64.811-13.569-84.932-37.224-20.8-24.459-26.237-54.926-14.911-83.588l.612-1.53c11.117-27.409-5.831-51.184-23.769-76.359-8.08-11.334-16.433-23.054-21.95-35.1-14.7-32.091-20.841-72.773-16.859-111.616,5.4-52.706,32.077-102.689,73.183-137.136,60.527-50.723,156.852-72.207,257.664-57.479,9.228,1.35,18.583,2.981,27.631,4.56,27.316,4.765,55.565,9.688,83.932,7.434,42.172-3.355,81.186-22.09,118.912-40.209,11.542-5.544,23.476-11.276,35.3-16.471,76.224-33.469,154.821-45.327,221.318-33.374,87.772,15.777,151.993,74.717,159.8,146.667,1.669,15.351-4.822,35.373-11.692,56.568-8.157,25.177-16.594,51.208-10.216,68.57,3.521,9.579,13.565,24.913,26.281,44.325,30.489,46.545,72.245,110.291,70.727,163.708-2.051,72.195-20.851,97.481-46.873,132.475l-3.906,5.262-2.217-1.175,3.911-5.264c25.8-34.7,44.442-59.762,46.471-131.35,1.5-52.818-40.054-116.258-70.4-162.581-12.791-19.523-22.892-34.945-26.491-44.741-6.609-17.981,1.932-44.331,10.192-69.814,6.8-21,13.231-40.828,11.606-55.779-7.7-70.977-71.1-129.13-157.741-144.7-65.907-11.848-143.879-.065-219.57,33.173-11.789,5.177-23.7,10.9-35.222,16.43-37.967,18.236-77.225,37.092-119.955,40.489-28.767,2.289-57.2-2.671-84.708-7.47-9.026-1.575-18.361-3.2-27.546-4.546-99.987-14.608-195.453,6.65-255.38,56.871C524.441,588.99,498.047,638.469,492.7,690.66c-3.949,38.516,2.136,78.837,16.693,110.626,5.434,11.868,13.729,23.5,21.748,34.756,17.464,24.5,35.519,49.837,24.005,78.22l-.606,1.514c-11.057,27.982-5.752,57.719,14.553,81.595,19.624,23.07,49.807,36.3,82.81,36.3Z" transform="translate(499.62 425.418)" fill="#f4ebe1"/>
      <path id="Path_11" data-name="Path 11" d="M1123.639-280.422c47.193-6.8,92.989,5.486,125.644,33.693,33.767,29.169,47.277,69.615,37.065,110.967l-.556,2.216C1275.54-93.6,1303.971-64.408,1334.07-33.5c13.5,13.865,27.467,28.2,37.52,43.539,26.794,40.887,43.318,95.235,45.333,149.112,2.734,73.094-24.778,146.746-75.482,202.072-74.666,81.473-205.069,130.2-348.827,130.364-13.171.016-26.578-.333-39.543-.668-39.187-1.019-79.719-2.074-119.041,6.754C775.568,510.784,724.6,544.308,675.3,576.73c-15.06,9.906-30.634,20.148-46.164,29.636-100.005,61.092-207.535,93.112-302.783,90.161C200.705,692.635,99.526,625.071,74.585,528.4c-5.311-20.588-.152-49.248,5.311-79.59,6.51-36.152,13.238-73.534.855-96.12-6.821-12.436-23.882-31.407-45.487-55.424C-16.452,239.769-87.28,161.027-95.582,87.761c-11.225-99.064,10.115-137.4,39.65-190.451l4.438-7.99,2.359.822-4.442,7.992c-29.357,52.735-50.566,90.835-39.41,189.3C-84.749,160.12-14.162,238.6,37.382,295.9c21.689,24.114,38.821,43.162,45.749,55.8,12.694,23.152,5.905,60.856-.659,97.319-5.426,30.141-10.554,58.61-5.337,78.815,24.7,95.746,124.953,162.667,249.459,166.522,94.654,2.937,201.575-28.929,301.081-89.717,15.489-9.463,31.045-19.693,46.087-29.587,49.513-32.566,100.713-66.241,159.72-79.478,39.713-8.9,80.434-7.852,119.813-6.829,12.944.335,26.328.684,39.456.67,142.925-.16,272.51-48.55,346.653-129.451,50.323-54.912,77.629-128.038,74.915-200.625-2-53.559-18.418-107.566-45.032-148.176-9.945-15.176-23.84-29.441-37.273-43.237-29.143-29.922-59.278-60.864-48.769-101.81l.554-2.2c10.038-40.651-3.242-80.41-36.437-109.084-32.083-27.714-77.065-39.781-123.417-33.106Z" transform="translate(-100.247 -290.561)" fill="#f4ebe1"/>
      <path id="Path_12" data-name="Path 12" d="M869.3-270.133c33.512-4.826,66.073,4.191,89.334,24.741,24.05,21.246,33.737,50.628,26.576,80.615l-.388,1.6c-7.13,28.716,13.005,49.837,34.323,72.2,9.6,10.068,19.525,20.477,26.689,31.616C1064.915-29.69,1076.748,9.7,1078.3,48.72c2.1,52.944-17.233,106.224-53.053,146.182-52.742,58.837-145.056,93.835-246.928,93.625-9.325-.02-18.818-.3-27.995-.574-27.714-.824-56.374-1.67-84.134,4.607C624.914,301.891,588.944,326,554.16,349.313c-10.641,7.131-21.643,14.506-32.619,21.335-70.721,44-146.844,66.937-214.358,64.584-89.114-3.105-161.015-52.294-178.921-122.4-3.82-14.959-.226-35.7,3.577-57.662,4.515-26.084,9.187-53.055.418-69.333-4.838-8.98-16.948-22.726-32.279-40.128C63.218,103.98,12.873,46.833,6.824-6.259-1.353-78.017,13.681-105.725,34.5-144.075l3.12-5.766,2.361.848-3.126,5.768C16.218-105.2,1.309-77.731,9.419-6.581c5.98,52.5,56.085,109.372,92.669,150.9,15.42,17.5,27.6,31.33,32.548,40.511,9.082,16.856,4.353,44.158-.218,70.561-3.767,21.753-7.326,42.3-3.605,56.869,17.662,69.161,88.633,117.686,176.6,120.751,66.913,2.334,142.432-20.442,212.656-64.136,10.938-6.8,21.92-14.165,32.542-21.285,35-23.462,71.2-47.722,113.017-57.177,28.153-6.366,57-5.51,84.906-4.682,9.157.274,18.628.554,27.91.574,101.04.207,192.535-34.443,244.754-92.7,35.442-39.537,54.573-92.278,52.492-144.7-1.534-38.689-13.258-77.733-32.162-107.123-7.057-10.975-16.912-21.311-26.441-31.306-20.75-21.766-42.2-44.268-34.82-74.005l.384-1.587c6.989-29.272-2.466-57.952-25.94-78.693-22.688-20.039-54.434-28.834-87.1-24.13Z" transform="translate(5.1 -279.393)" fill="#f4ebe1"/>
    </g>
  </g>
</svg>
