<svg xmlns="http://www.w3.org/2000/svg" width="41.08" height="42.779" viewBox="0 0 41.08 42.779">
  <g id="noun-hoarding-5364669" transform="translate(-209.378 -133.567)">
    <path id="Path_17" data-name="Path 17" d="M249.649,158.6H210.207a.821.821,0,0,1-.818-.818v-23.4a.821.821,0,0,1,.818-.818h39.435a.821.821,0,0,1,.818.818v23.4a.808.808,0,0,1-.81.818Zm-38.624-1.636h37.8V135.2h-37.8Z" transform="translate(-0.009 0)" fill="#373a47"/>
    <path id="Path_18" data-name="Path 18" d="M249.649,330.413H210.207a.818.818,0,0,1,0-1.636h39.435a.818.818,0,0,1,.008,1.636Z" transform="translate(-0.009 -166.697)" fill="#373a47"/>
    <path id="Path_19" data-name="Path 19" d="M210.2,320.036a.821.821,0,0,1-.818-.818v-1.775a.818.818,0,1,1,1.636,0v1.775A.815.815,0,0,1,210.2,320.036Z" transform="translate(0 -156.32)" fill="#373a47"/>
    <path id="Path_20" data-name="Path 20" d="M303.217,320.036a.821.821,0,0,1-.818-.818v-1.775a.818.818,0,1,1,1.636,0v1.775A.821.821,0,0,1,303.217,320.036Z" transform="translate(-79.433 -156.32)" fill="#373a47"/>
    <path id="Path_21" data-name="Path 21" d="M387.217,320.036a.821.821,0,0,1-.818-.818v-1.775a.818.818,0,1,1,1.636,0v1.775A.821.821,0,0,1,387.217,320.036Z" transform="translate(-151.163 -156.32)" fill="#373a47"/>
    <path id="Path_22" data-name="Path 22" d="M327.857,343.038a.821.821,0,0,1-.818-.818V329.59a.818.818,0,1,1,1.636,0v12.63A.821.821,0,0,1,327.857,343.038Z" transform="translate(-100.474 -166.692)" fill="#373a47"/>
    <path id="Path_23" data-name="Path 23" d="M362.577,343.038a.821.821,0,0,1-.818-.818V329.59a.818.818,0,1,1,1.636,0v12.63A.821.821,0,0,1,362.577,343.038Z" transform="translate(-130.123 -166.692)" fill="#373a47"/>
    <path id="Path_24" data-name="Path 24" d="M254.557,320.036a.821.821,0,0,1-.818-.818v-1.775a.818.818,0,1,1,1.636,0v1.775A.821.821,0,0,1,254.557,320.036Z" transform="translate(-37.881 -156.32)" fill="#373a47"/>
    <path id="Path_25" data-name="Path 25" d="M435.877,320.036a.821.821,0,0,1-.818-.818v-1.775a.818.818,0,1,1,1.636,0v1.775A.815.815,0,0,1,435.877,320.036Z" transform="translate(-192.716 -156.32)" fill="#373a47"/>
    <path id="Path_26" data-name="Path 26" d="M480.237,320.036a.821.821,0,0,1-.818-.818v-1.775a.818.818,0,1,1,1.636,0v1.775A.82.82,0,0,1,480.237,320.036Z" transform="translate(-230.596 -156.32)" fill="#373a47"/>
  </g>
</svg>
